<svg width="60" height="32" viewBox="0 0 60 32" fill="none" xmlns="http://www.w3.org/2000/svg">
<path d="M0.896875 32V31.16L4.57687 30.56V1.44L0.896875 0.879998V-4.76837e-07H24.9769V9.16H23.8969L20.8169 0.999999H8.97688V15.4H14.1769L16.5369 9.6H17.5769V22.24H16.5369L14.1369 16.36H8.97688V31.04H21.5369L24.8169 22.24H25.8569V32H0.896875ZM29.845 32V31.16L33.565 29.56V2.44L29.845 0.879998V-4.76837e-07H37.285L54.525 24.16V2.44L50.805 0.879998V-4.76837e-07H59.325V0.879998L55.525 2.44V32H54.525L34.565 3.96V29.56L38.405 31.16V32H29.845Z" fill="#ED3900"/>
</svg>
